Coordinates
version=1
nRows=14
nColumns=63
inDegrees=yes

Units are S.I. units (second, meters, Newtons, ...)
If the header above contains a line with 'inDegrees', this indicates whether rotational values are in degrees (yes) or radians (no).

endheader
time	pelvis_tilt	pelvis_list	pelvis_rotation	pelvis_tx	pelvis_ty	pelvis_tz	hip_flexion_r	hip_adduction_r	hip_rotation_r	knee_angle_r	knee_angle_r_beta	ankle_angle_r	subtalar_angle_r	mtp_angle_r	hip_flexion_l	hip_adduction_l	hip_rotation_l	knee_angle_l	knee_angle_l_beta	ankle_angle_l	subtalar_angle_l	mtp_angle_l	L5_S1_Flex_Ext	L5_S1_Lat_Bending	L5_S1_axial_rotation	L4_L5_Flex_Ext	L4_L5_Lat_Bending	L4_L5_axial_rotation	L3_L4_Flex_Ext	L3_L4_Lat_Bending	L3_L4_axial_rotation	L2_L3_Flex_Ext	L2_L3_Lat_Bending	L2_L3_axial_rotation	L1_L2_Flex_Ext	L1_L2_Lat_Bending	L1_L2_axial_rotation	L1_T12_Flex_Ext	L1_T12_Lat_Bending	L1_T12_axial_rotation	Abs_r3	Abs_r2	Abs_r1	Abs_t1	Abs_t2	neck_flexion	neck_bending	neck_rotation	arm_flex_r	arm_add_r	arm_rot_r	elbow_flex_r	pro_sup_r	wrist_flex_r	wrist_dev_r	arm_flex_l	arm_add_l	arm_rot_l	elbow_flex_l	pro_sup_l	wrist_flex_l	wrist_dev_l
3.707317	-1.147715	-6.121102	99.932100	0.275355	0.775564	0.865555	-0.421128	0.354981	-15.569662	6.965904	0.121578	27.153001	17.315840	0.000000	0.231630	0.119222	-6.974287	6.295172	0.109871	27.884154	11.689501	0.000000	-0.036278	-0.204838	-0.560500	-0.067372	-0.272434	-0.595531	-0.059601	-0.498043	-0.595531	-0.041462	-0.498043	-0.490437	-0.033688	-0.417705	-0.455406	-0.020729	-0.317294	-0.420375	-0.259131	-2.317167	-3.117332	0.000000	0.000000	14.421062	-1.609914	-5.716186	-10.816928	-17.604036	-16.701858	63.808845	67.085856	10.944963	1.139050	-6.561917	-22.101551	-15.544437	42.472116	73.824460	10.066181	9.232867
3.731707	-1.107315	-6.197280	99.944007	0.275165	0.775409	0.866421	-0.215130	0.342084	-15.728690	7.105688	0.124018	27.191980	17.410921	0.000000	0.419414	0.101478	-6.950937	6.335514	0.110576	28.054310	11.701958	0.000000	-0.030387	-0.198961	-0.592764	-0.056432	-0.264619	-0.629812	-0.049923	-0.483755	-0.629812	-0.034729	-0.483755	-0.518668	-0.028217	-0.405722	-0.481621	-0.017363	-0.308191	-0.444573	-0.217051	-2.250691	-3.296775	0.000000	0.000000	14.313953	-1.443511	-5.056199	-10.236368	-18.048989	-15.538077	62.545781	67.771806	9.481388	-0.020950	-6.511228	-21.859430	-15.667619	41.444264	75.300639	9.717035	8.956035
3.756098	-1.121358	-6.266505	99.828792	0.275155	0.775283	0.867181	-0.035448	0.277320	-15.717276	7.217709	0.125973	27.219620	17.457206	0.000000	0.564143	0.138938	-7.028373	6.343966	0.110723	28.238481	11.713184	0.000000	-0.027665	-0.199452	-0.611252	-0.051377	-0.265271	-0.649455	-0.045452	-0.484947	-0.649455	-0.031619	-0.484947	-0.534845	-0.025690	-0.406722	-0.496642	-0.015808	-0.308951	-0.458439	-0.197612	-2.256239	-3.399599	0.000000	0.000000	14.134313	-1.169649	-4.357358	-9.797378	-18.589359	-14.301013	61.684359	68.074799	8.463656	-1.039773	-6.711318	-21.738656	-15.741674	40.887600	76.664158	9.410303	8.523284
3.780488	-1.180746	-6.342232	99.600173	0.275339	0.775156	0.867787	0.126458	0.171076	-15.571148	7.293410	0.127294	27.233611	17.505319	0.000000	0.680681	0.218856	-7.228576	6.324678	0.110386	28.440377	11.764527	0.000000	-0.025259	-0.206217	-0.613929	-0.046909	-0.274269	-0.652300	-0.041499	-0.501397	-0.652300	-0.028869	-0.501397	-0.537188	-0.023456	-0.420518	-0.498817	-0.014433	-0.319431	-0.460447	-0.180425	-2.332772	-3.414490	0.000000	0.000000	13.894379	-0.797183	-3.709738	-9.469816	-19.112543	-13.163758	61.185431	67.973154	7.952751	-1.494001	-7.050270	-21.714492	-15.789200	40.697625	77.803361	9.205566	8.060400
3.804878	-1.283092	-6.409420	99.283146	0.275719	0.775036	0.868225	0.257254	0.031637	-15.308841	7.344795	0.128191	27.253630	17.536009	0.000000	0.752965	0.333680	-7.522351	6.277058	0.109555	28.647157	11.857790	0.000000	-0.024921	-0.218896	-0.603154	-0.046282	-0.291132	-0.640851	-0.040943	-0.532224	-0.640851	-0.028483	-0.532224	-0.527760	-0.023142	-0.446373	-0.490063	-0.014240	-0.339070	-0.452366	-0.178011	-2.476198	-3.354563	0.000000	0.000000	13.631563	-0.336372	-3.086336	-9.197151	-19.582783	-12.177086	60.931803	67.627819	7.976046	-1.467316	-7.407944	-21.789540	-15.732063	40.741062	78.566440	9.090456	7.547407
3.829268	-1.418719	-6.464492	98.900737	0.276244	0.774920	0.868504	0.352756	-0.131067	-14.966663	7.368396	0.128603	27.284416	17.572600	0.000000	0.781934	0.475950	-7.855154	6.204619	0.108291	28.845567	11.940108	0.000000	-0.025750	-0.235819	-0.575463	-0.047820	-0.313639	-0.611429	-0.042304	-0.573370	-0.611429	-0.029429	-0.573370	-0.503530	-0.023911	-0.480882	-0.467563	-0.014713	-0.365283	-0.431597	-0.183927	-2.667629	-3.200551	0.000000	0.000000	13.361312	0.170133	-2.493316	-8.974346	-19.985731	-11.399734	60.832627	67.335575	8.441801	-1.219449	-7.677313	-21.943296	-15.489735	40.904143	78.865640	9.040078	6.976152
3.853659	-1.573838	-6.503972	98.496218	0.276833	0.774821	0.868664	0.405292	-0.301189	-14.566694	7.351051	0.128300	27.321647	17.596064	0.000000	0.771057	0.634841	-8.141029	6.106111	0.106572	29.005556	11.948066	0.000000	-0.027604	-0.254984	-0.535000	-0.051263	-0.339129	-0.568438	-0.045350	-0.619968	-0.568438	-0.031548	-0.619968	-0.468125	-0.025633	-0.519964	-0.434688	-0.015773	-0.394970	-0.401250	-0.197170	-2.884431	-2.975510	0.000000	0.000000	13.102991	0.694601	-1.930699	-8.780283	-20.328635	-10.784685	60.811063	67.151972	9.079004	-0.963643	-7.803157	-22.128444	-15.060126	41.060782	78.934756	8.994930	6.110076
3.878049	-1.739824	-6.523608	98.101082	0.277432	0.774752	0.868720	0.414114	-0.471505	-14.148245	7.301018	0.127427	27.369146	17.612815	0.000000	0.730416	0.799032	-8.393935	6.003529	0.104781	29.130500	11.935390	0.000000	-0.030020	-0.275298	-0.486764	-0.055749	-0.366146	-0.517187	-0.049319	-0.669359	-0.517187	-0.034309	-0.669359	-0.425918	-0.027876	-0.561387	-0.395496	-0.017153	-0.426436	-0.365073	-0.214427	-3.114221	-2.707234	0.000000	0.000000	12.856508	1.200829	-1.407433	-8.588238	-20.601402	-10.339103	60.763641	67.099930	9.827631	-0.739646	-7.807372	-22.288806	-14.579604	41.166413	78.762438	9.105222	5.042853
3.902439	-1.905010	-6.526724	97.757079	0.277985	0.774734	0.868675	0.382363	-0.630640	-13.763227	7.223229	0.126069	27.418524	17.622558	0.000000	0.676529	0.953518	-8.679855	5.915127	0.103238	29.235733	12.032751	0.000000	-0.031559	-0.295622	-0.438746	-0.058609	-0.393177	-0.466168	-0.051849	-0.718775	-0.466168	-0.036069	-0.718775	-0.383903	-0.029306	-0.602832	-0.356481	-0.018033	-0.457918	-0.329060	-0.225425	-3.344133	-2.440175	0.000000	0.000000	12.639162	1.666965	-0.936963	-8.397520	-20.792123	-10.025227	60.595432	67.241567	10.468051	-0.640387	-7.753196	-22.397810	-14.085180	41.204409	78.682761	9.171650	3.663295
3.926829	-2.062538	-6.509568	97.449657	0.278487	0.774777	0.868496	0.312955	-0.776233	-13.403322	7.132607	0.124487	27.468685	17.633593	0.000000	0.585757	1.104943	-8.767529	5.804303	0.101304	29.242920	11.907622	0.000000	-0.031052	-0.314825	-0.394212	-0.057666	-0.418717	-0.418850	-0.051015	-0.765465	-0.418850	-0.035489	-0.765465	-0.344935	-0.028835	-0.641990	-0.320297	-0.017743	-0.487663	-0.295659	-0.221799	-3.561359	-2.192488	0.000000	0.000000	12.461302	2.038137	-0.515369	-8.176624	-20.913799	-9.739728	60.208331	67.633190	10.856430	-0.540346	-7.748088	-22.453521	-13.601655	41.235317	78.742894	9.136888	2.059368
3.951220	-2.201969	-6.465012	97.165309	0.278939	0.774891	0.868163	0.196396	-0.896505	-13.045210	7.020703	0.122534	27.503582	17.628630	0.000000	0.446097	1.243323	-8.675977	5.666961	0.098907	29.153496	11.565366	0.000000	-0.028633	-0.330868	-0.347196	-0.053174	-0.440055	-0.368896	-0.047041	-0.804473	-0.368896	-0.032724	-0.804473	-0.303796	-0.026588	-0.674707	-0.282097	-0.016361	-0.512515	-0.260397	-0.204521	-3.742848	-1.930999	0.000000	0.000000	12.315983	2.240801	-0.188819	-7.906510	-20.936958	-9.508597	59.483085	68.248322	11.028336	-0.349352	-7.812676	-22.505227	-13.015180	41.304537	78.901789	9.021330	0.465608
3.975610	-2.308763	-6.396638	96.887515	0.279283	0.775043	0.867650	0.046673	-0.987039	-12.694813	6.911785	0.120633	27.533482	17.626347	0.000000	0.260981	1.359917	-8.436437	5.509028	0.096151	28.981001	11.016044	0.000000	-0.022983	-0.339738	-0.299207	-0.042681	-0.451851	-0.317907	-0.037758	-0.826038	-0.317907	-0.026267	-0.826038	-0.261806	-0.021342	-0.692793	-0.243106	-0.013132	-0.526253	-0.224405	-0.164163	-3.843179	-1.664099	0.000000	0.000000	12.177166	2.201568	0.086597	-7.615891	-20.892625	-9.689632	58.408311	69.714224	10.898661	0.072122	-7.919034	-22.596096	-12.052430	41.401395	79.118025	8.828784	-0.957528
4.000000	-2.374159	-6.294631	96.636678	0.279477	0.775203	0.866991	-0.153035	-1.036616	-12.367828	6.795539	0.118605	27.551059	17.615194	0.000000	0.018595	1.447189	-7.979067	5.321043	0.092870	28.724159	10.195213	0.000000	-0.018117	-0.339896	-0.248128	-0.033645	-0.452062	-0.263636	-0.029764	-0.826424	-0.263636	-0.020706	-0.826424	-0.217112	-0.016823	-0.693117	-0.201604	-0.010352	-0.526499	-0.186096	-0.129407	-3.844976	-1.380014	0.000000	0.000000	12.074284	1.916547	0.234754	-7.364963	-20.861259	-11.074575	57.070123	72.674126	10.221182	0.702001	-7.944107	-22.733238	-10.487018	41.438752	79.417495	8.595289	-1.995727
4.024390	-2.411861	-6.171259	96.418553	0.279575	0.775350	0.866206	-0.385559	-1.060072	-12.077292	6.690030	0.116763	27.566166	17.600949	0.000000	-0.256551	1.513508	-7.380728	5.131047	0.089554	28.413949	9.197017	0.000000	-0.012490	-0.333487	-0.209722	-0.023195	-0.443537	-0.222830	-0.020519	-0.810840	-0.222830	-0.014275	-0.810840	-0.183507	-0.011598	-0.680046	-0.170399	-0.007137	-0.516571	-0.157292	-0.089213	-3.772469	-1.166411	0.000000	0.000000	11.987966	1.527206	0.465901	-6.682468	-20.791289	-10.057135	54.977097	73.722778	9.473436	1.005211	-7.861233	-22.902019	-8.208630	41.297770	79.896503	8.404858	-2.728589
